# xmcd
#
# Track frame offsets: 
#        150
#        51818
#        99444
#        170905
#
# Disc length: 3116 seconds
#
# Revision: 1
# Processed by: cddbd v1.5PL3 Copyright (c) Steve Scherf et al.
# Submitted via: ExactAudioCopy v0.95a4
#
DISCID=2f0c2a04
DTITLE=Oscar Peterson - Big 6 At Montreux
DYEAR=1975
DGENRE=Jazz
TTITLE0=Au Privave
TTITLE1=Here's That Rainy Day
TTITLE2=Poor Butterfly
TTITLE3=Reunion Blues
EXTD=
EXTT0=
EXTT1=
EXTT2=
EXTT3=
PLAYORDER=
